<svg xmlns="http://www.w3.org/2000/svg" width="22" height="23" viewBox="0 0 22 23" fill="none">
  <path
    d="M10.56 13.4935L7.67149 10.605C7.63164 10.5651 7.60026 10.5206 7.57734 10.4715C7.55443 10.4223 7.54297 10.3697 7.54297 10.3135C7.54297 10.2012 7.58095 10.1036 7.65691 10.0208C7.73286 9.93791 7.83296 9.89648 7.95723 9.89648H14.0424C14.1667 9.89648 14.2668 9.93831 14.3428 10.022C14.4187 10.1056 14.4567 10.2032 14.4567 10.3147C14.4567 10.3426 14.4138 10.4394 14.328 10.6051L11.4396 13.4935C11.3733 13.5599 11.3046 13.6084 11.2337 13.6389C11.1629 13.6695 11.0849 13.6847 10.9998 13.6847C10.9148 13.6847 10.8368 13.6695 10.7659 13.6389C10.695 13.6084 10.6264 13.5599 10.56 13.4935Z"
    fill="#8F95B2"
  />
</svg>