<svg width="22" height="22" viewBox="0 0 22 22" fill="none" xmlns="http://www.w3.org/2000/svg">
  <path d="M10.0836 16.4993C11.8559 16.4993 13.3684 15.8753 14.6211 14.6272C15.8739 13.3791 16.5003 11.8643 16.5003 10.0827C16.5003 8.31044 15.8739 6.79794 14.6211 5.54516C13.3684 4.29238 11.8559 3.66599 10.0836 3.66599C8.30202 3.66599 6.78717 4.29238 5.53908 5.54516C4.29101 6.79794 3.66697 8.31044 3.66697 10.0827C3.66697 11.8643 4.29101 13.3791 5.53908 14.6272C6.78717 15.8753 8.30202 16.4993 10.0836 16.4993ZM10.0836 17.8743C9.00244 17.8743 7.98941 17.6698 7.04454 17.2608C6.09967 16.8519 5.27585 16.296 4.57307 15.5932C3.87031 14.8904 3.31444 14.0666 2.90547 13.1218C2.49649 12.1769 2.29199 11.1639 2.29199 10.0827C2.29199 9.01086 2.49649 8.00254 2.90547 7.05768C3.31444 6.11281 3.87031 5.28664 4.57307 4.57915C5.27585 3.87169 6.09967 3.31347 7.04454 2.9045C7.98941 2.49551 9.00244 2.29102 10.0836 2.29102C11.1554 2.29102 12.1638 2.49551 13.1086 2.9045C14.0535 3.31347 14.8797 3.87169 15.5871 4.57915C16.2946 5.28664 16.8528 6.11281 17.2618 7.05768C17.6708 8.00254 17.8753 9.01086 17.8753 10.0827C17.8753 11.0369 17.7134 11.9377 17.3896 12.7851C17.0658 13.6324 16.6184 14.4004 16.0472 15.0891L19.2344 18.2763C19.3707 18.4126 19.4351 18.5706 19.4275 18.7504C19.4198 18.9302 19.3478 19.0883 19.2115 19.2246C19.0752 19.3516 18.9157 19.415 18.7329 19.415C18.5502 19.415 18.3906 19.3516 18.2543 19.2246L15.0759 16.0604C14.3873 16.6315 13.6193 17.0766 12.7719 17.3957C11.9246 17.7148 11.0285 17.8743 10.0836 17.8743Z" fill="#8F95B2"/>
</svg>
