<svg xmlns="http://www.w3.org/2000/svg" width="20" height="20" viewBox="0 0 20 20" fill="none">
  <path
    d="M4.99992 18.3335C4.54159 18.3335 4.14922 18.1703 3.82284 17.8439C3.49645 17.5175 3.33325 17.1252 3.33325 16.6668V8.3335C3.33325 7.87516 3.49645 7.4828 3.82284 7.15641C4.14922 6.83002 4.54159 6.66683 4.99992 6.66683H5.83325V5.00016C5.83325 3.84739 6.2395 2.86475 7.052 2.05225C7.8645 1.23975 8.84714 0.833496 9.99992 0.833496C11.1527 0.833496 12.1353 1.23975 12.9478 2.05225C13.7603 2.86475 14.1666 3.84739 14.1666 5.00016V6.66683H14.9999C15.4583 6.66683 15.8506 6.83002 16.177 7.15641C16.5034 7.4828 16.6666 7.87516 16.6666 8.3335V16.6668C16.6666 17.1252 16.5034 17.5175 16.177 17.8439C15.8506 18.1703 15.4583 18.3335 14.9999 18.3335H4.99992ZM9.99992 14.1668C10.4583 14.1668 10.8506 14.0036 11.177 13.6772C11.5034 13.3509 11.6666 12.9585 11.6666 12.5002C11.6666 12.0418 11.5034 11.6495 11.177 11.3231C10.8506 10.9967 10.4583 10.8335 9.99992 10.8335C9.54158 10.8335 9.14922 10.9967 8.82283 11.3231C8.49645 11.6495 8.33325 12.0418 8.33325 12.5002C8.33325 12.9585 8.49645 13.3509 8.82283 13.6772C9.14922 14.0036 9.54158 14.1668 9.99992 14.1668ZM7.49992 6.66683H12.4999V5.00016C12.4999 4.30572 12.2569 3.71544 11.7708 3.22933C11.2846 2.74322 10.6944 2.50016 9.99992 2.50016C9.30547 2.50016 8.7152 2.74322 8.22908 3.22933C7.74297 3.71544 7.49992 4.30572 7.49992 5.00016V6.66683Z"
    fill="#8F95B2"
  />
</svg>