<svg
  xmlns="http://www.w3.org/2000/svg"
  width="20"
  height="20"
  viewBox="0 0 20 20"
  fill="none"
>
  <path
    d="M9.99974 10.8779L5.77216 15.1055C5.65679 15.2209 5.51176 15.2799 5.33708 15.2826C5.16241 15.2853 5.01472 15.2262 4.89399 15.1055C4.77326 14.9848 4.71289 14.8384 4.71289 14.6664C4.71289 14.4944 4.77326 14.3481 4.89399 14.2273L9.12156 9.99974L4.89399 5.77216C4.77861 5.65679 4.71958 5.51176 4.71691 5.33708C4.71423 5.16241 4.77326 5.01472 4.89399 4.89399C5.01472 4.77326 5.16108 4.71289 5.33308 4.71289C5.50508 4.71289 5.65144 4.77326 5.77216 4.89399L9.99974 9.12156L14.2273 4.89399C14.3427 4.77861 14.4877 4.71958 14.6624 4.71691C14.8371 4.71423 14.9848 4.77326 15.1055 4.89399C15.2262 5.01472 15.2866 5.16108 15.2866 5.33308C15.2866 5.50508 15.2262 5.65144 15.1055 5.77216L10.8779 9.99974L15.1055 14.2273C15.2209 14.3427 15.2799 14.4877 15.2826 14.6624C15.2853 14.8371 15.2262 14.9848 15.1055 15.1055C14.9848 15.2262 14.8384 15.2866 14.6664 15.2866C14.4944 15.2866 14.3481 15.2262 14.2273 15.1055L9.99974 10.8779Z"
    fill="#8F95B2"
  />
</svg>