<svg xmlns="http://www.w3.org/2000/svg" viewBox="0 0 20 20" fill="none">
  <path
    d="M8.83342 11.4994L7.04175 9.70768C6.88897 9.55491 6.69453 9.47852 6.45842 9.47852C6.2223 9.47852 6.02786 9.55491 5.87508 9.70768C5.7223 9.86046 5.64592 10.0549 5.64592 10.291C5.64592 10.5271 5.7223 10.7216 5.87508 10.8743L8.25008 13.2494C8.41675 13.416 8.61119 13.4994 8.83342 13.4994C9.05564 13.4994 9.25008 13.416 9.41675 13.2494L14.1251 8.54102C14.2779 8.38824 14.3542 8.19379 14.3542 7.95768C14.3542 7.72157 14.2779 7.52713 14.1251 7.37435C13.9723 7.22157 13.7779 7.14518 13.5417 7.14518C13.3056 7.14518 13.1112 7.22157 12.9584 7.37435L8.83342 11.4994ZM10.0001 18.3327C8.8473 18.3327 7.76397 18.1139 6.75008 17.6764C5.73619 17.2389 4.85425 16.6452 4.10425 15.8952C3.35425 15.1452 2.7605 14.2632 2.323 13.2494C1.8855 12.2355 1.66675 11.1521 1.66675 9.99935C1.66675 8.84657 1.8855 7.76324 2.323 6.74935C2.7605 5.73546 3.35425 4.85352 4.10425 4.10352C4.85425 3.35352 5.73619 2.75977 6.75008 2.32227C7.76397 1.88477 8.8473 1.66602 10.0001 1.66602C11.1529 1.66602 12.2362 1.88477 13.2501 2.32227C14.264 2.75977 15.1459 3.35352 15.8959 4.10352C16.6459 4.85352 17.2397 5.73546 17.6772 6.74935C18.1147 7.76324 18.3334 8.84657 18.3334 9.99935C18.3334 11.1521 18.1147 12.2355 17.6772 13.2494C17.2397 14.2632 16.6459 15.1452 15.8959 15.8952C15.1459 16.6452 14.264 17.2389 13.2501 17.6764C12.2362 18.1139 11.1529 18.3327 10.0001 18.3327Z"
    fill="#4CBFA4"
  />
</svg>